<svg xmlns="http://www.w3.org/2000/svg" viewBox="0 0 1280 320" width="1280" height="320" role="img" aria-label="CupOracle — the missing World Cup MCP server. An agent asks, tools fire, x402 pays, and the receipt lands on Injective.">
  <defs>
    <linearGradient id="plate" x1="0" y1="0" x2="1" y2="1">
      <stop offset="0" stop-color="#070B14"/><stop offset="0.5" stop-color="#0A0F1E"/><stop offset="1" stop-color="#0B0716"/>
    </linearGradient>
    <linearGradient id="oracleGrad" x1="0" y1="0" x2="1" y2="0">
      <stop offset="0" stop-color="#7FF0FF"/><stop offset="0.45" stop-color="#00E5FF"/><stop offset="1" stop-color="#A78BFA"/>
    </linearGradient>
    <linearGradient id="edge" x1="0" y1="0" x2="1" y2="0">
      <stop offset="0" stop-color="#00E5FF"/><stop offset="1" stop-color="#8B5CF6"/>
    </linearGradient>
    <linearGradient id="beam" x1="0" y1="0" x2="1" y2="0">
      <stop offset="0" stop-color="#7FF0FF" stop-opacity="0"/><stop offset="0.5" stop-color="#7FF0FF" stop-opacity="0.45"/><stop offset="1" stop-color="#7FF0FF" stop-opacity="0"/>
    </linearGradient>
    <radialGradient id="packet" cx="0.5" cy="0.5" r="0.5">
      <stop offset="0" stop-color="#ffffff"/><stop offset="0.5" stop-color="#7FF0FF"/><stop offset="1" stop-color="#00E5FF" stop-opacity="0"/>
    </radialGradient>
    <radialGradient id="auroraC" cx="0.5" cy="0.5" r="0.5"><stop offset="0" stop-color="#00E5FF" stop-opacity="0.45"/><stop offset="1" stop-color="#00E5FF" stop-opacity="0"/></radialGradient>
    <radialGradient id="auroraV" cx="0.5" cy="0.5" r="0.5"><stop offset="0" stop-color="#8B5CF6" stop-opacity="0.55"/><stop offset="1" stop-color="#8B5CF6" stop-opacity="0"/></radialGradient>
    <pattern id="scan" width="4" height="4" patternUnits="userSpaceOnUse"><rect width="4" height="1" y="0" fill="#08131c" opacity="0.55"/></pattern>
    <!-- outlined wordmark glyph paths (Space Grotesk 700, size 72, baseline-anchored) -->
    <path id="wm-cup" d="M23.9 1.0L23.9 1.0Q14.5 1.0 9.1-4.2Q3.6-9.4 3.6-19.2L3.6-19.2L3.6-31.2Q3.6-41.0 9.1-46.2Q14.5-51.4 23.9-51.4L23.9-51.4Q33.2-51.4 38.3-46.3Q43.3-41.3 43.3-32.4L43.3-32.4L43.3-32.0L34.0-32.0L34.0-32.7Q34.0-37.2 31.5-40.0Q29.0-42.9 23.9-42.9L23.9-42.9Q18.9-42.9 16.0-39.8Q13.1-36.7 13.1-31.4L13.1-31.4L13.1-19.0Q13.1-13.8 16.0-10.6Q18.9-7.5 23.9-7.5L23.9-7.5Q29.0-7.5 31.5-10.4Q34.0-13.3 34.0-17.7L34.0-17.7L34.0-19.0L43.3-19.0L43.3-18.0Q43.3-9.1 38.3-4.1Q33.2 1.0 23.9 1.0ZM65.0 0.6L65.0 0.6Q60.8 0.6 57.7-1.3Q54.6-3.2 52.8-6.6Q51.1-10.0 51.1-14.4L51.1-14.4L51.1-35.7L60.2-35.7L60.2-15.1Q60.2-11.1 62.2-9.1Q64.2-7.1 67.8-7.1L67.8-7.1Q72-7.1 74.3-9.8Q76.6-12.6 76.6-17.6L76.6-17.6L76.6-35.7L85.7-35.7L85.7 0L76.8 0L76.8-4.7L75.5-4.7Q74.6-2.9 72.2-1.2Q69.8 0.6 65.0 0.6ZM104.8 14.4L95.8 14.4L95.8-35.7L104.7-35.7L104.7-31.4L106.0-31.4Q107.2-33.5 109.8-35.1Q112.4-36.7 117.2-36.7L117.2-36.7Q121.5-36.7 125.2-34.6Q128.9-32.5 131.1-28.4Q133.3-24.3 133.3-18.4L133.3-18.4L133.3-17.3Q133.3-11.4 131.1-7.3Q128.9-3.2 125.2-1.1Q121.5 1.0 117.2 1.0L117.2 1.0Q114.0 1.0 111.8 0.3Q109.6-0.5 108.3-1.7Q106.9-2.9 106.1-4.1L106.1-4.1L104.8-4.1L104.8 14.4ZM114.5-6.9L114.5-6.9Q118.7-6.9 121.5-9.6Q124.3-12.3 124.3-17.5L124.3-17.5L124.3-18.2Q124.3-23.4 121.5-26.1Q118.7-28.8 114.5-28.8L114.5-28.8Q110.3-28.8 107.5-26.1Q104.7-23.4 104.7-18.2L104.7-18.2L104.7-17.5Q104.7-12.3 107.5-9.6Q110.3-6.9 114.5-6.9Z"/>
    <path id="wm-oracle" d="M24.3 1.0L24.3 1.0Q14.8 1.0 9.2-4.2Q3.6-9.4 3.6-19.2L3.6-19.2L3.6-31.2Q3.6-41.0 9.2-46.2Q14.8-51.4 24.3-51.4L24.3-51.4Q33.8-51.4 39.5-46.2Q45.1-41.0 45.1-31.2L45.1-31.2L45.1-19.2Q45.1-9.4 39.5-4.2Q33.8 1.0 24.3 1.0ZM24.3-7.5L24.3-7.5Q29.7-7.5 32.6-10.6Q35.6-13.7 35.6-18.9L35.6-18.9L35.6-31.5Q35.6-36.7 32.6-39.8Q29.7-42.9 24.3-42.9L24.3-42.9Q19.1-42.9 16.1-39.8Q13.1-36.7 13.1-31.5L13.1-31.5L13.1-18.9Q13.1-13.7 16.1-10.6Q19.1-7.5 24.3-7.5ZM62.8 0L53.7 0L53.7-35.7L62.6-35.7L62.6-31.7L63.9-31.7Q64.7-33.8 66.6-34.8Q68.4-35.9 70.8-35.9L70.8-35.9L75.2-35.9L75.2-27.8L70.7-27.8Q67.2-27.8 65.0-26.0Q62.8-24.1 62.8-20.3L62.8-20.3L62.8 0ZM92.4 1.0L92.4 1.0Q88.6 1.0 85.6-0.3Q82.6-1.7 80.8-4.2Q79.1-6.8 79.1-10.4L79.1-10.4Q79.1-14.1 80.8-16.6Q82.6-19.1 85.7-20.3Q88.8-21.6 92.9-21.6L92.9-21.6L102.7-21.6L102.7-23.6Q102.7-26.1 101.1-27.8Q99.5-29.4 96.0-29.4L96.0-29.4Q92.7-29.4 91.0-27.8Q89.4-26.3 88.8-23.8L88.8-23.8L80.5-26.6Q81.4-29.4 83.3-31.6Q85.2-33.9 88.4-35.3Q91.6-36.7 96.2-36.7L96.2-36.7Q103.2-36.7 107.4-33.2Q111.5-29.7 111.5-23.0L111.5-23.0L111.5-9.6Q111.5-7.5 113.5-7.5L113.5-7.5L116.4-7.5L116.4 0L110.3 0Q107.6 0 105.9-1.3Q104.2-2.6 104.2-4.8L104.2-4.8L104.2-4.8L102.8-4.8Q102.5-4.0 101.5-2.6Q100.5-1.2 98.4-0.1Q96.2 1.0 92.4 1.0ZM94.0-6.3L94.0-6.3Q97.8-6.3 100.3-8.5Q102.7-10.6 102.7-14.1L102.7-14.1L102.7-14.8L93.5-14.8Q91.0-14.8 89.6-13.8Q88.1-12.7 88.1-10.7L88.1-10.7Q88.1-8.8 89.6-7.6Q91.2-6.3 94.0-6.3ZM139.0 1.0L139.0 1.0Q133.8 1.0 129.6-1.2Q125.4-3.3 123.0-7.4Q120.5-11.5 120.5-17.4L120.5-17.4L120.5-18.4Q120.5-24.2 123.0-28.3Q125.4-32.4 129.6-34.6Q133.8-36.7 139.0-36.7L139.0-36.7Q144.1-36.7 147.8-34.9Q151.5-33.1 153.8-30.0Q156.0-26.9 156.7-22.9L156.7-22.9L148.0-21.0Q147.7-23.2 146.7-24.9Q145.7-26.6 143.8-27.6Q142.0-28.7 139.2-28.7L139.2-28.7Q136.5-28.7 134.3-27.5Q132.1-26.3 130.9-23.9Q129.6-21.6 129.6-18.2L129.6-18.2L129.6-17.5Q129.6-14.1 130.9-11.8Q132.1-9.4 134.3-8.2Q136.5-7.1 139.2-7.1L139.2-7.1Q143.4-7.1 145.5-9.2Q147.6-11.3 148.2-14.8L148.2-14.8L157.0-12.7Q156.0-8.9 153.8-5.7Q151.5-2.6 147.8-0.8Q144.1 1.0 139.0 1.0ZM173.5 0L164.4 0L164.4-50.4L173.5-50.4L173.5 0ZM199.9 1.0L199.9 1.0Q194.5 1.0 190.5-1.3Q186.4-3.5 184.1-7.7Q181.9-11.8 181.9-17.4L181.9-17.4L181.9-18.3Q181.9-23.9 184.1-28.0Q186.3-32.2 190.4-34.5Q194.4-36.7 199.7-36.7L199.7-36.7Q205.0-36.7 208.9-34.4Q212.8-32.0 214.9-27.9Q217.1-23.8 217.1-18.3L217.1-18.3L217.1-15.2L191.1-15.2Q191.2-11.5 193.8-9.2Q196.4-6.9 200.2-6.9L200.2-6.9Q204.0-6.9 205.8-8.6Q207.6-10.2 208.5-12.2L208.5-12.2L215.9-8.4Q214.9-6.5 213.0-4.3Q211.1-2.1 207.9-0.5Q204.8 1.0 199.9 1.0ZM191.2-22.0L191.2-22.0L207.9-22.0Q207.6-25.1 205.4-26.9Q203.2-28.8 199.7-28.8L199.7-28.8Q196.0-28.8 193.8-26.9Q191.7-25.1 191.2-22.0Z"/>
    <clipPath id="oracleClip"><use href="#wm-oracle" x="141.7"/></clipPath>
    <filter id="glow" x="-40%" y="-40%" width="180%" height="180%"><feGaussianBlur stdDeviation="3.4" result="b"/><feMerge><feMergeNode in="b"/><feMergeNode in="SourceGraphic"/></feMerge></filter>
    <filter id="soft" x="-80%" y="-80%" width="260%" height="260%"><feGaussianBlur stdDeviation="34"/></filter>
    <filter id="trail" x="-50%" y="-50%" width="200%" height="200%"><feGaussianBlur stdDeviation="3.2"/></filter>
    <clipPath id="plateClip"><rect x="0" y="0" width="1280" height="320" rx="26"/></clipPath>
    <style>
      @keyframes metricPulse{0%,100%{opacity:.6}50%{opacity:1}}
      @keyframes twinkle{0%,100%{opacity:.25}50%{opacity:.9}}
      @keyframes markBreath{0%,100%{opacity:.3}82%{opacity:.64}}
      @keyframes stripPulse{0%,100%{opacity:.3}50%{opacity:.7}}
      @keyframes glitch{0%,7%,60%,100%{transform:translate(0,0)}61%{transform:translate(-2px,0)}63%{transform:translate(2px,1px)}65%{transform:translate(-1px,-1px)}8%{transform:translate(1.5px,0)}10%{transform:translate(-1.5px,0)}12%{transform:translate(0,0)}}
      .mp{animation:metricPulse 8s ease-in-out infinite}
      .tw{animation:twinkle 8s ease-in-out infinite}
      .mb{animation:markBreath 8s ease-in-out infinite}
      .sp{animation:stripPulse 8s ease-in-out infinite}
      .wm-main{animation:glitch 8s steps(1,end) infinite}
      @media (prefers-reduced-motion: reduce){*{animation:none !important}}
    </style>
  </defs>

  <rect x="0" y="0" width="1280" height="320" rx="26" fill="url(#plate)"/>
  <g clip-path="url(#plateClip)">
    <circle cx="300" cy="110" r="150" fill="url(#auroraC)" filter="url(#soft)"><animate attributeName="cx" values="300;360;300" dur="17s" repeatCount="indefinite"/></circle>
    <circle cx="1060" cy="240" r="160" fill="url(#auroraV)" filter="url(#soft)"><animate attributeName="cy" values="240;190;240" dur="15s" repeatCount="indefinite"/></circle>
    <g class="sp" transform="rotate(-35 640 160)" stroke-width="2">
      <line x1="-200" y1="40" x2="1480" y2="40" stroke="#00E5FF" opacity="0.12"/>
      <line x1="-200" y1="240" x2="1480" y2="240" stroke="#00E5FF" opacity="0.09"/>
      <line x1="-200" y1="440" x2="1480" y2="440" stroke="#00E5FF" opacity="0.11"/>
    </g>
    <g fill="#eafcff">
      <circle class="tw" cx="180" cy="46" r="1.6"/><circle class="tw" cx="520" cy="40" r="1.4" style="animation-delay:-2s"/>
      <circle class="tw" cx="760" cy="56" r="1.8" style="animation-delay:-3s"/><circle class="tw" cx="1120" cy="44" r="1.5" style="animation-delay:-1s"/>
      <circle class="tw" cx="960" cy="70" r="1.3" style="animation-delay:-4s"/><circle class="tw" cx="640" cy="30" r="1.3" style="animation-delay:-2.6s"/>
    </g>
    <rect x="0" y="0" width="1280" height="320" fill="url(#scan)" opacity="0.35"/>
    <rect x="-260" y="0" width="220" height="320" fill="url(#beam)" opacity="0.4" transform="skewX(-18)">
      <animate attributeName="x" values="-300;-300;1500;1500" keyTimes="0;0.12;0.5;1" dur="8s" repeatCount="indefinite"/>
    </rect>

    <!-- ================= RIGHT: STORY ================= -->
    <!-- stdio rail -->
    <line x1="600" y1="104" x2="1196" y2="104" stroke="#1a4b5c" stroke-width="2" stroke-dasharray="2 6" opacity="0.8"/>
    <!-- node A: the question -->
    <g>
      <rect x="572" y="86" width="56" height="36" rx="10" fill="#0a1a2e" stroke="#8B5CF6" stroke-width="1.6"/>
      <text x="600" y="110" text-anchor="middle" font-family="ui-monospace,SFMono-Regular,Menlo,Consolas,monospace" font-size="13" fill="#c4b5fd">ask?</text>
      <text x="600" y="140" text-anchor="middle" font-family="ui-monospace,SFMono-Regular,Menlo,Consolas,monospace" font-size="11" fill="#7fa6c9">harness</text>
    </g>
    <!-- node B: tools hex (cycles tool names) -->
    <g>
      <path d="M810 80 L836 94 L836 118 L810 132 L784 118 L784 94 Z" fill="#04202a" stroke="#00E5FF" stroke-width="1.8"/>
      <g font-family="ui-monospace,SFMono-Regular,Menlo,Consolas,monospace" font-size="10.5" fill="#7FF0FF" text-anchor="middle">
        <text x="810" y="110" opacity="0"><animate attributeName="opacity" values="0;1;1;0;0" keyTimes="0;0.16;0.24;0.28;1" dur="8s" repeatCount="indefinite"/>fixtures</text>
        <text x="810" y="110" opacity="0"><animate attributeName="opacity" values="0;0;1;1;0;0" keyTimes="0;0.26;0.3;0.36;0.4;1" dur="8s" repeatCount="indefinite"/>odds</text>
        <text x="810" y="110" opacity="0"><animate attributeName="opacity" values="0;0;1;1;0" keyTimes="0;0.38;0.42;0.94;1" dur="8s" repeatCount="indefinite"/>wc_edge</text>
      </g>
      <text x="810" y="152" text-anchor="middle" font-family="ui-monospace,SFMono-Regular,Menlo,Consolas,monospace" font-size="11" fill="#7fa6c9">8 MCP tools</text>
    </g>
    <!-- node C: 402 gate -->
    <g>
      <path d="M1002 80 L1028 94 L1028 118 L1002 132 L976 118 L976 94 Z" fill="#120a24" stroke="#8B5CF6" stroke-width="1.8">
        <animate attributeName="stroke" values="#8B5CF6;#FFD166;#8B5CF6;#8B5CF6" keyTimes="0;0.5;0.58;1" dur="8s" repeatCount="indefinite"/>
      </path>
      <text x="1002" y="111" text-anchor="middle" font-family="ui-monospace,SFMono-Regular,Menlo,Consolas,monospace" font-size="12" font-weight="700" fill="#c4b5fd">402</text>
      <text x="1002" y="152" text-anchor="middle" font-family="ui-monospace,SFMono-Regular,Menlo,Consolas,monospace" font-size="11" fill="#7fa6c9">x402 · 0.05 USDC</text>
    </g>
    <!-- node D: receipt -->
    <g>
      <path d="M1170 82 L1196 96 L1196 112 L1170 126 L1144 112 L1144 96 Z" fill="#231604" stroke="#FFB300" stroke-width="1.6"/>
      <text x="1170" y="108" text-anchor="middle" font-family="ui-monospace,SFMono-Regular,Menlo,Consolas,monospace" font-size="10" fill="#FFD166">0x·✓</text>
      <text x="1170" y="140" text-anchor="middle" font-family="ui-monospace,SFMono-Regular,Menlo,Consolas,monospace" font-size="11" fill="#cfa96a">receipt</text>
      <circle cx="1170" cy="104" r="10" fill="none" stroke="#FFD166" stroke-width="2.5">
        <animate attributeName="r" values="8;8;40;40" keyTimes="0;0.56;0.72;1" dur="8s" repeatCount="indefinite"/>
        <animate attributeName="opacity" values="0;0;0.9;0;0" keyTimes="0;0.56;0.6;0.74;1" dur="8s" repeatCount="indefinite"/>
      </circle>
    </g>
    <!-- packet comet -->
    <g>
      <circle r="15" fill="url(#packet)" filter="url(#trail)"/>
      <circle r="5" fill="#ffffff"><animate attributeName="fill" values="#ffffff;#ffffff;#FFD166;#FFD166" keyTimes="0;0.5;0.58;1" dur="8s" repeatCount="indefinite"/></circle>
      <animateMotion path="M600 104 L1196 104" keyPoints="0;0;1;1" keyTimes="0;0.14;0.76;1" dur="8s" repeatCount="indefinite"/>
      <animate attributeName="opacity" values="0;0;1;1;0;0" keyTimes="0;0.13;0.16;0.76;0.82;1" dur="8s" repeatCount="indefinite"/>
    </g>

    <!-- panes -->
    <!-- TRANSCRIPT pane -->
    <g>
      <rect x="592" y="176" width="296" height="104" rx="12" fill="#0a1220" fill-opacity="0.78" stroke="#1e3a52" stroke-width="1.4"/>
      <text x="612" y="204" font-family="'Segoe UI',system-ui,-apple-system,sans-serif" font-size="12" letter-spacing="2" fill="#5f7f9e">CLAUDE DESKTOP · ONE INSTALL</text>
      <text x="612" y="232" font-family="'Segoe UI',system-ui,-apple-system,sans-serif" font-size="14.5" fill="#dbe7f5">"Tonight's semi-final — worth a bet?"</text>
      <!-- tool chips light in sequence -->
      <g font-family="ui-monospace,SFMono-Regular,Menlo,Consolas,monospace" font-size="12">
        <g opacity="0.2"><animate attributeName="opacity" values="0.2;1;1;0.2" keyTimes="0;0.18;0.94;1" dur="8s" repeatCount="indefinite"/>
          <rect x="612" y="246" width="82" height="22" rx="6" fill="#04202a" stroke="#00E5FF" stroke-width="1.2"/>
          <text x="653" y="262" text-anchor="middle" fill="#7FF0FF">fixtures ▸</text>
        </g>
        <g opacity="0.2"><animate attributeName="opacity" values="0.2;0.2;1;1;0.2" keyTimes="0;0.26;0.32;0.94;1" dur="8s" repeatCount="indefinite"/>
          <rect x="702" y="246" width="62" height="22" rx="6" fill="#04202a" stroke="#00E5FF" stroke-width="1.2"/>
          <text x="733" y="262" text-anchor="middle" fill="#7FF0FF">odds ▸</text>
        </g>
        <g opacity="0.2"><animate attributeName="opacity" values="0.2;0.2;1;1;0.2" keyTimes="0;0.38;0.44;0.94;1" dur="8s" repeatCount="indefinite"/>
          <rect x="772" y="246" width="96" height="22" rx="6" fill="#170f02" stroke="#FFB300" stroke-width="1.2"/>
          <text x="820" y="262" text-anchor="middle" fill="#FFD166">wc_edge $ ▸</text>
        </g>
      </g>
    </g>
    <!-- VERIFY pane -->
    <g>
      <rect x="904" y="176" width="312" height="104" rx="12" fill="#0d0a1c" fill-opacity="0.78" stroke="#8B5CF6" stroke-width="1.5"/>
      <text x="924" y="204" font-family="'Segoe UI',system-ui,-apple-system,sans-serif" font-size="12" letter-spacing="2" fill="#a996d8">RECEIPT_VERIFY · INJECTIVE EVM</text>
      <rect x="924" y="220" width="160" height="22" rx="6" fill="#231604" stroke="#FFB300" stroke-width="1.2"/>
      <text x="934" y="236" font-family="ui-monospace,SFMono-Regular,Menlo,Consolas,monospace" font-size="12.5" fill="#FFD166">0x9c2e…77aa ↗</text>
      <text x="924" y="268" font-family="ui-monospace,SFMono-Regular,Menlo,Consolas,monospace" font-size="12.5" fill="#8ba3c9">0.05 USDC · confirmed in 650ms</text>
      <!-- verified badge pops late -->
      <g opacity="0">
        <animate attributeName="opacity" values="0;0;1;1;0" keyTimes="0;0.76;0.82;0.97;1" dur="8s" repeatCount="indefinite"/>
        <rect x="1104" y="216" width="96" height="30" rx="15" fill="url(#edge)"/>
        <text x="1152" y="236" text-anchor="middle" font-family="ui-monospace,SFMono-Regular,Menlo,Consolas,monospace" font-size="13.5" font-weight="700" fill="#04121a">✓ VERIFIED</text>
      </g>
    </g>

    <!-- ================= LEFT: BRAND ================= -->
    <g class="mb" filter="url(#soft)">
      <path d="M92 84 L110 96 L103 118 L81 118 L74 96 Z" fill="#00E5FF"/>
    </g>
    <!-- mini mark: braces + pentagon -->
    <g filter="url(#glow)">
      <path d="M66 76 Q54 76 54 88 L54 96 Q54 106 44 106 Q54 106 54 116 L54 124 Q54 136 66 136" fill="none" stroke="url(#edge)" stroke-width="7" stroke-linecap="round"/>
      <path d="M118 76 Q130 76 130 88 L130 96 Q130 106 140 106 Q130 106 130 116 L130 124 Q130 136 118 136" fill="none" stroke="url(#edge)" stroke-width="7" stroke-linecap="round"/>
      <path d="M92 84 L110 96 L103 118 L81 118 L74 96 Z" fill="url(#oracleGrad)" stroke="#04121a" stroke-width="2.5" stroke-linejoin="round"/>
      <circle cx="122" cy="78" r="5" fill="#FFB300"/>
    </g>

    <!-- outlined wordmark: Cup (white) + Oracle (cyan→violet gradient) -->
    <g transform="translate(156,124)">
      <g fill="#00E5FF" opacity="0.3" transform="translate(-2.6,0)"><use href="#wm-cup"/><use href="#wm-oracle" x="141.7"/></g>
      <g fill="#8B5CF6" opacity="0.3" transform="translate(2.6,0)"><use href="#wm-cup"/><use href="#wm-oracle" x="141.7"/></g>
      <g class="wm-main">
        <use href="#wm-cup" fill="#f1f5f9"/>
        <use href="#wm-oracle" x="141.7" fill="url(#oracleGrad)"/>
        <g clip-path="url(#oracleClip)">
          <rect x="120" y="-54" width="34" height="62" fill="#ffffff" opacity="0.55" transform="skewX(-20)">
            <animate attributeName="x" values="120;120;400;400" keyTimes="0;0.28;0.5;1" dur="8s" repeatCount="indefinite"/>
            <animate attributeName="opacity" values="0;0;0.6;0;0" keyTimes="0;0.28;0.4;0.52;1" dur="8s" repeatCount="indefinite"/>
          </rect>
        </g>
      </g>
    </g>

    <text x="60" y="176" font-family="'Segoe UI',system-ui,-apple-system,sans-serif" font-size="19" font-weight="600" fill="#ddeaf5">The missing World Cup MCP server.</text>
    <text class="mp" x="60" y="206" font-family="ui-monospace,SFMono-Regular,Menlo,Consolas,monospace" font-size="13.5" fill="#7FF0FF">One install. 8 tools. Receipts on Injective.</text>
    <rect x="60" y="224" width="360" height="1" fill="#1a4b5c" opacity="0.7"/>
    <text x="60" y="250" font-family="ui-monospace,SFMono-Regular,Menlo,Consolas,monospace" font-size="12.5" fill="#6f8ba6" letter-spacing="0.4">MCP Server · Injective x402 · Agent Skills · USDC CCTP · npm</text>
  </g>
  <rect x="0.75" y="0.75" width="1278.5" height="318.5" rx="25.5" fill="none" stroke="#23405c" stroke-width="1.5" opacity="0.7"/>
</svg>
